<svg xmlns="http://www.w3.org/2000/svg" xmlns:xlink="http://www.w3.org/1999/xlink" width="500" zoomAndPan="magnify" viewBox="0 0 375 374.999991" height="500" preserveAspectRatio="xMidYMid meet" version="1.0"><defs><g/></defs><path stroke-linecap="butt" transform="matrix(0.775146, -0.44753, 0.447405, 0.774927, 101.40432, 150.213549)" fill="none" stroke-linejoin="miter" d="M -0.00162051 5.001203 L 110.982771 4.997363 " stroke="#6b7985" stroke-width="10" stroke-opacity="1" stroke-miterlimit="4"/><path stroke-linecap="butt" transform="matrix(-0.777335, -0.448794, 0.447405, -0.774927, 269.11112, 157.816953)" fill="none" stroke-linejoin="miter" d="M 0.000976438 5.000609 L 110.670651 5.000668 " stroke="#6b7985" stroke-width="10" stroke-opacity="1" stroke-miterlimit="4"/><path stroke-linecap="butt" transform="matrix(0.000000000000000055, -0.897614, 0.894809, 0.000000000000000055, 117.041049, 141.725395)" fill="none" stroke-linejoin="miter" d="M -0.00130012 8.999352 L 19.947418 8.999352 " stroke="#6b7985" stroke-width="18" stroke-opacity="1" stroke-miterlimit="4"/><g fill="#6b7985" fill-opacity="1"><g transform="translate(146.867031, 228.133007)"><g><path d="M 17.890625 0 L 15.28125 0 L 4.8125 -15.890625 L 4.8125 0 L 2.203125 0 L 2.203125 -19.984375 L 4.8125 -19.984375 L 15.28125 -4.125 L 15.28125 -19.984375 L 17.890625 -19.984375 Z M 17.890625 0 "/></g></g></g><g fill="#6b7985" fill-opacity="1"><g transform="translate(166.984919, 228.133007)"><g><path d="M 4.8125 -17.828125 L 4.8125 -11.15625 L 12.078125 -11.15625 L 12.078125 -9.015625 L 4.8125 -9.015625 L 4.8125 -2.140625 L 12.9375 -2.140625 L 12.9375 0 L 2.203125 0 L 2.203125 -19.984375 L 12.9375 -19.984375 L 12.9375 -17.828125 Z M 4.8125 -17.828125 "/></g></g></g><g fill="#6b7985" fill-opacity="1"><g transform="translate(181.665548, 228.133007)"><g><path d="M 15.546875 -14.109375 C 15.546875 -12.453125 14.976562 -11.070312 13.84375 -9.96875 C 12.707031 -8.875 10.972656 -8.328125 8.640625 -8.328125 L 4.8125 -8.328125 L 4.8125 0 L 2.203125 0 L 2.203125 -19.953125 L 8.640625 -19.953125 C 10.890625 -19.953125 12.601562 -19.40625 13.78125 -18.3125 C 14.957031 -17.226562 15.546875 -15.828125 15.546875 -14.109375 Z M 8.640625 -10.484375 C 10.085938 -10.484375 11.15625 -10.796875 11.84375 -11.421875 C 12.53125 -12.046875 12.875 -12.941406 12.875 -14.109375 C 12.875 -16.578125 11.460938 -17.8125 8.640625 -17.8125 L 4.8125 -17.8125 L 4.8125 -10.484375 Z M 8.640625 -10.484375 "/></g></g></g><g fill="#6b7985" fill-opacity="1"><g transform="translate(198.23491, 228.133007)"><g><path d="M 14 -4.4375 L 5.296875 -4.4375 L 3.6875 0 L 0.9375 0 L 8.15625 -19.84375 L 11.15625 -19.84375 L 18.34375 0 L 15.59375 0 Z M 13.25 -6.5625 L 9.640625 -16.625 L 6.046875 -6.5625 Z M 13.25 -6.5625 "/></g></g></g><g fill="#6b7985" fill-opacity="1"><g transform="translate(217.522907, 228.133007)"><g><path d="M 4.8125 -2.125 L 11.796875 -2.125 L 11.796875 0 L 2.203125 0 L 2.203125 -19.953125 L 4.8125 -19.953125 Z M 4.8125 -2.125 "/></g></g></g><g fill="#6b7985" fill-opacity="1"><g transform="translate(99.05036, 197.473067)"><g><path d="M 22.140625 -22.71875 L 22.140625 0 L 15.8125 0 L 15.8125 -9.125 L 8.125 -9.125 L 8.125 0 L 1.796875 0 L 1.796875 -22.71875 L 8.125 -22.71875 L 8.125 -14.171875 L 15.8125 -14.171875 L 15.8125 -22.71875 Z M 22.140625 -22.71875 "/></g></g></g><g fill="#6b7985" fill-opacity="1"><g transform="translate(122.977288, 197.473067)"><g><path d="M 12.6875 0.21875 C 10.5625 0.21875 8.609375 -0.273438 6.828125 -1.265625 C 5.046875 -2.265625 3.632812 -3.648438 2.59375 -5.421875 C 1.550781 -7.203125 1.03125 -9.207031 1.03125 -11.4375 C 1.03125 -13.664062 1.550781 -15.664062 2.59375 -17.4375 C 3.632812 -19.21875 5.046875 -20.597656 6.828125 -21.578125 C 8.609375 -22.566406 10.5625 -23.0625 12.6875 -23.0625 C 14.84375 -23.0625 16.804688 -22.566406 18.578125 -21.578125 C 20.347656 -20.597656 21.75 -19.21875 22.78125 -17.4375 C 23.8125 -15.664062 24.328125 -13.664062 24.328125 -11.4375 C 24.328125 -9.207031 23.8125 -7.203125 22.78125 -5.421875 C 21.75 -3.648438 20.34375 -2.265625 18.5625 -1.265625 C 16.78125 -0.273438 14.820312 0.21875 12.6875 0.21875 Z M 12.6875 -5.640625 C 14.300781 -5.640625 15.570312 -6.164062 16.5 -7.21875 C 17.4375 -8.269531 17.90625 -9.675781 17.90625 -11.4375 C 17.90625 -13.238281 17.4375 -14.660156 16.5 -15.703125 C 15.570312 -16.742188 14.300781 -17.265625 12.6875 -17.265625 C 11.0625 -17.265625 9.785156 -16.742188 8.859375 -15.703125 C 7.929688 -14.660156 7.46875 -13.238281 7.46875 -11.4375 C 7.46875 -9.65625 7.929688 -8.242188 8.859375 -7.203125 C 9.785156 -6.160156 11.0625 -5.640625 12.6875 -5.640625 Z M 12.6875 -5.640625 "/></g></g></g><g fill="#6b7985" fill-opacity="1"><g transform="translate(148.321155, 197.473067)"><g><path d="M 10.375 0.21875 C 7.726562 0.21875 5.554688 -0.40625 3.859375 -1.65625 C 2.171875 -2.914062 1.257812 -4.71875 1.125 -7.0625 L 7.859375 -7.0625 C 7.921875 -6.257812 8.15625 -5.675781 8.5625 -5.3125 C 8.976562 -4.945312 9.507812 -4.765625 10.15625 -4.765625 C 10.726562 -4.765625 11.203125 -4.910156 11.578125 -5.203125 C 11.953125 -5.492188 12.140625 -5.894531 12.140625 -6.40625 C 12.140625 -7.070312 11.828125 -7.585938 11.203125 -7.953125 C 10.585938 -8.316406 9.582031 -8.726562 8.1875 -9.1875 C 6.695312 -9.675781 5.492188 -10.148438 4.578125 -10.609375 C 3.671875 -11.078125 2.878906 -11.753906 2.203125 -12.640625 C 1.523438 -13.535156 1.1875 -14.703125 1.1875 -16.140625 C 1.1875 -17.597656 1.550781 -18.847656 2.28125 -19.890625 C 3.019531 -20.929688 4.03125 -21.71875 5.3125 -22.25 C 6.601562 -22.789062 8.066406 -23.0625 9.703125 -23.0625 C 12.335938 -23.0625 14.441406 -22.441406 16.015625 -21.203125 C 17.597656 -19.972656 18.445312 -18.242188 18.5625 -16.015625 L 11.703125 -16.015625 C 11.671875 -16.703125 11.457031 -17.21875 11.0625 -17.5625 C 10.664062 -17.90625 10.15625 -18.078125 9.53125 -18.078125 C 9.0625 -18.078125 8.675781 -17.9375 8.375 -17.65625 C 8.070312 -17.375 7.921875 -16.976562 7.921875 -16.46875 C 7.921875 -16.03125 8.085938 -15.65625 8.421875 -15.34375 C 8.753906 -15.039062 9.164062 -14.773438 9.65625 -14.546875 C 10.15625 -14.316406 10.890625 -14.03125 11.859375 -13.6875 C 13.296875 -13.195312 14.476562 -12.707031 15.40625 -12.21875 C 16.34375 -11.738281 17.148438 -11.0625 17.828125 -10.1875 C 18.503906 -9.320312 18.84375 -8.222656 18.84375 -6.890625 C 18.84375 -5.535156 18.503906 -4.320312 17.828125 -3.25 C 17.148438 -2.175781 16.171875 -1.328125 14.890625 -0.703125 C 13.617188 -0.0859375 12.113281 0.21875 10.375 0.21875 Z M 10.375 0.21875 "/></g></g></g><g fill="#6b7985" fill-opacity="1"><g transform="translate(168.2871, 197.473067)"><g><path d="M 18.90625 -22.71875 L 18.90625 -17.6875 L 12.859375 -17.6875 L 12.859375 0 L 6.546875 0 L 6.546875 -17.6875 L 0.546875 -17.6875 L 0.546875 -22.71875 Z M 18.90625 -22.71875 "/></g></g></g><g fill="#6b7985" fill-opacity="1"><g transform="translate(187.737797, 197.473067)"><g><path d="M 8.125 -17.65625 L 8.125 -13.953125 L 15.375 -13.953125 L 15.375 -9.15625 L 8.125 -9.15625 L 8.125 -5.0625 L 16.328125 -5.0625 L 16.328125 0 L 1.796875 0 L 1.796875 -22.71875 L 16.328125 -22.71875 L 16.328125 -17.65625 Z M 8.125 -17.65625 "/></g></g></g><g fill="#6b7985" fill-opacity="1"><g transform="translate(205.385112, 197.473067)"><g><path d="M 8.125 -4.828125 L 15.171875 -4.828125 L 15.171875 0 L 1.796875 0 L 1.796875 -22.71875 L 8.125 -22.71875 Z M 8.125 -4.828125 "/></g></g></g><g fill="#6b7985" fill-opacity="1"><g transform="translate(221.196852, 197.473067)"><g><path d="M 8.125 -4.828125 L 15.171875 -4.828125 L 15.171875 0 L 1.796875 0 L 1.796875 -22.71875 L 8.125 -22.71875 Z M 8.125 -4.828125 "/></g></g></g><g fill="#6b7985" fill-opacity="1"><g transform="translate(237.008592, 197.473067)"><g><path d="M 8.125 -17.65625 L 8.125 -13.953125 L 15.375 -13.953125 L 15.375 -9.15625 L 8.125 -9.15625 L 8.125 -5.0625 L 16.328125 -5.0625 L 16.328125 0 L 1.796875 0 L 1.796875 -22.71875 L 16.328125 -22.71875 L 16.328125 -17.65625 Z M 8.125 -17.65625 "/></g></g></g><g fill="#6b7985" fill-opacity="1"><g transform="translate(254.655907, 197.473067)"><g><path d="M 13.3125 0 L 8.796875 -8.375 L 8.125 -8.375 L 8.125 0 L 1.796875 0 L 1.796875 -22.71875 L 11.765625 -22.71875 C 13.585938 -22.71875 15.128906 -22.398438 16.390625 -21.765625 C 17.660156 -21.128906 18.617188 -20.257812 19.265625 -19.15625 C 19.910156 -18.050781 20.234375 -16.8125 20.234375 -15.4375 C 20.234375 -13.882812 19.804688 -12.519531 18.953125 -11.34375 C 18.109375 -10.175781 16.867188 -9.347656 15.234375 -8.859375 L 20.359375 0 Z M 8.125 -12.6875 L 11.25 -12.6875 C 12.101562 -12.6875 12.742188 -12.890625 13.171875 -13.296875 C 13.609375 -13.710938 13.828125 -14.304688 13.828125 -15.078125 C 13.828125 -15.804688 13.601562 -16.378906 13.15625 -16.796875 C 12.71875 -17.222656 12.082031 -17.4375 11.25 -17.4375 L 8.125 -17.4375 Z M 8.125 -12.6875 "/></g></g></g></svg>