<svg xmlns="http://www.w3.org/2000/svg" xmlns:xlink="http://www.w3.org/1999/xlink" width="400" zoomAndPan="magnify" viewBox="0 0 300 242.999999" height="324" preserveAspectRatio="xMidYMid meet" version="1.0"><defs><clipPath id="c056c0a3f6"><path d="M 30.8125 40 L 230 40 L 230 214 L 30.8125 214 Z M 30.8125 40 " clip-rule="nonzero"/></clipPath><clipPath id="1367fb4312"><path d="M 30.8125 94 L 64 94 L 64 132 L 30.8125 132 Z M 30.8125 94 " clip-rule="nonzero"/></clipPath><clipPath id="c428ea5744"><path d="M 236 16.285156 L 260.304688 16.285156 L 260.304688 41 L 236 41 Z M 236 16.285156 " clip-rule="nonzero"/></clipPath><clipPath id="2d562957a4"><path d="M 160 183 L 196 183 L 196 218.785156 L 160 218.785156 Z M 160 183 " clip-rule="nonzero"/></clipPath></defs><path fill="#d4e7ff" d="M 241.507812 131.382812 C 239.164062 182.035156 194.070312 196.453125 137.898438 197.535156 C 52.242188 199.1875 42.273438 171.996094 42.273438 121.292969 C 42.273438 70.589844 60.949219 18.234375 110.457031 22.09375 C 133.976562 23.925781 160.675781 62.882812 180.667969 75.808594 C 208.28125 93.667969 243.277344 93.332031 241.507812 131.382812 Z M 241.507812 131.382812 " fill-opacity="1" fill-rule="nonzero"/><g clip-path="url(#c056c0a3f6)"><path stroke-linecap="butt" transform="matrix(0.373768, 0, 0, 0.373616, 30.812061, 16.285585)" fill="none" stroke-linejoin="miter" d="M 27.142449 364.845164 C 27.142449 364.845164 74.882665 344.018311 96.819336 276.1533 C 118.766458 208.267379 158.543004 151.098087 233.926143 147.271466 C 309.309282 143.423935 390.837615 148.149707 417.790772 107.698355 C 444.723026 67.247003 387.148409 66.326941 386.343681 137.29716 C 385.528502 208.277834 509.592448 338.445664 516.082526 439.516541 C 522.562152 540.597872 438.797303 520.544708 334.736591 479.905161 C 230.665428 439.27607 122.027173 519.676922 54.315076 489.607631 C -13.397021 459.517429 -10.460287 395.207202 27.142449 364.845164 Z M 27.142449 364.845164 " stroke="#4570b4" stroke-width="1" stroke-opacity="0.4196" stroke-miterlimit="10"/></g><path fill="#4570b4" d="M 44.746094 123.207031 C 50.394531 123.207031 54.976562 118.628906 54.976562 112.984375 C 54.976562 107.335938 50.394531 102.761719 44.746094 102.761719 C 39.09375 102.761719 34.515625 107.335938 34.515625 112.984375 C 34.515625 118.628906 39.09375 123.207031 44.746094 123.207031 Z M 44.746094 123.207031 " fill-opacity="0.4196" fill-rule="nonzero"/><g clip-path="url(#1367fb4312)"><path stroke-linecap="butt" transform="matrix(0.373768, 0, 0, 0.373616, 30.812061, 16.285585)" fill="none" stroke-linejoin="miter" d="M 61.975667 283.513795 C 75.624687 269.869697 75.624687 247.756849 61.975667 234.123206 C 48.337098 220.489563 26.212309 220.489563 12.57374 234.123206 C -1.064829 247.756849 -1.064829 269.869697 12.57374 283.513795 C 26.212309 297.147437 48.337098 297.147437 61.975667 283.513795 Z M 61.975667 283.513795 " stroke="#4570b4" stroke-width="1" stroke-opacity="0.4196" stroke-miterlimit="10"/></g><path fill="#4570b4" d="M 239.058594 131.382812 C 245.648438 131.382812 250.992188 126.042969 250.992188 119.460938 C 250.992188 112.875 245.648438 107.535156 239.058594 107.535156 C 232.46875 107.535156 227.125 112.875 227.125 119.460938 C 227.125 126.042969 232.46875 131.382812 239.058594 131.382812 Z M 239.058594 131.382812 " fill-opacity="0.4196" fill-rule="nonzero"/><path stroke-linecap="butt" transform="matrix(0.373768, 0, 0, 0.373616, 30.812061, 16.285585)" fill="none" stroke-linejoin="miter" d="M 334.182687 190.064794 L 325.571055 203.750712 L 343.912578 203.750712 Z M 334.182687 190.064794 " stroke="#4570b4" stroke-width="1" stroke-opacity="0.4196" stroke-miterlimit="10"/><path fill="#4570b4" d="M 110.292969 39.714844 L 105.984375 46.539062 L 115.152344 46.539062 Z M 110.292969 39.714844 " fill-opacity="0.4196" fill-rule="nonzero"/><path fill="#4570b4" d="M 142.542969 53.503906 C 149.414062 53.503906 154.984375 47.9375 154.984375 41.070312 C 154.984375 34.203125 149.414062 28.636719 142.542969 28.636719 C 135.671875 28.636719 130.101562 34.203125 130.101562 41.070312 C 130.101562 47.9375 135.671875 53.503906 142.542969 53.503906 Z M 142.542969 53.503906 " fill-opacity="0.4196" fill-rule="nonzero"/><path fill="#ffffff" d="M 142.292969 39.535156 L 141.59375 38.199219 C 141.144531 37.339844 141.476562 36.28125 142.335938 35.828125 C 142.921875 35.523438 143.148438 34.800781 142.839844 34.214844 L 141.796875 32.210938 C 141.488281 31.628906 140.765625 31.398438 140.179688 31.707031 L 139.265625 32.183594 C 138.40625 32.632812 137.707031 33.332031 137.261719 34.191406 L 136.996094 34.707031 C 136.535156 35.589844 136.539062 36.644531 137 37.53125 L 138.957031 41.273438 L 140.261719 43.769531 L 142.21875 47.507812 C 142.679688 48.394531 143.546875 49 144.539062 49.125 L 145.109375 49.199219 C 146.070312 49.328125 147.046875 49.152344 147.90625 48.703125 L 148.816406 48.226562 C 149.402344 47.917969 149.628906 47.195312 149.328125 46.609375 L 148.28125 44.605469 C 147.972656 44.023438 147.253906 43.792969 146.664062 44.097656 C 145.804688 44.546875 144.746094 44.214844 144.292969 43.355469 L 143.59375 42.019531 Z M 142.292969 39.535156 " fill-opacity="1" fill-rule="nonzero"/><path stroke-linecap="butt" transform="matrix(0.373768, 0, 0, 0.373616, 30.812061, 16.285585)" fill="none" stroke-linejoin="miter" d="M 542.429523 441.691232 C 542.429523 445.496942 539.346475 448.58124 535.531856 448.58124 C 531.727688 448.58124 528.634189 445.507397 528.634189 441.691232 C 528.634189 437.875067 531.717237 434.801224 535.531856 434.801224 C 539.346475 434.811679 542.429523 437.885522 542.429523 441.691232 Z M 542.429523 441.691232 " stroke="#4570b4" stroke-width="1" stroke-opacity="0.4196" stroke-miterlimit="10"/><path fill="#ffffff" d="M 79.554688 45.167969 C 82.183594 45.167969 84.316406 43.035156 84.316406 40.410156 C 84.316406 37.78125 82.183594 35.648438 79.554688 35.648438 C 76.921875 35.648438 74.789062 37.78125 74.789062 40.410156 C 74.789062 43.035156 76.921875 45.167969 79.554688 45.167969 Z M 79.554688 45.167969 " fill-opacity="0.4196" fill-rule="nonzero"/><path stroke-linecap="butt" transform="matrix(0.373768, 0, 0, 0.373616, 30.812061, 16.285585)" fill="none" stroke-linejoin="miter" d="M 478.228965 254.280923 C 485.272947 254.280923 490.979198 248.572358 490.979198 241.535976 C 490.979198 234.51005 485.272947 228.801485 478.228965 228.801485 C 471.195435 228.801485 465.489184 234.51005 465.489184 241.535976 C 465.489184 248.572358 471.195435 254.280923 478.228965 254.280923 Z M 478.228965 254.280923 " stroke="#4570b4" stroke-width="1" stroke-opacity="0.4196" stroke-miterlimit="10"/><path fill="#4570b4" d="M 59.621094 138.394531 C 62.183594 138.394531 64.261719 136.316406 64.261719 133.757812 C 64.261719 131.195312 62.183594 129.121094 59.621094 129.121094 C 57.058594 129.121094 54.980469 131.195312 54.980469 133.757812 C 54.980469 136.316406 57.058594 138.394531 59.621094 138.394531 Z M 59.621094 138.394531 " fill-opacity="0.4196" fill-rule="nonzero"/><path stroke-linecap="butt" transform="matrix(0.373768, 0, 0, 0.373616, 30.812061, 16.285585)" fill="none" stroke-linejoin="miter" d="M 557.154997 298.161596 C 569.319973 298.161596 579.175276 288.302298 579.175276 276.1533 C 579.175276 263.993848 569.319973 254.134549 557.154997 254.134549 C 544.990021 254.134549 535.134718 263.993848 535.134718 276.1533 C 535.134718 288.302298 544.990021 298.161596 557.154997 298.161596 Z M 557.154997 298.161596 " stroke="#ffffff" stroke-width="1" stroke-opacity="0.4196" stroke-miterlimit="10"/><path fill="#4570b4" d="M 232.0625 41.546875 L 175.019531 41.546875 C 172.578125 41.546875 170.605469 43.523438 170.605469 45.957031 L 170.605469 80.386719 C 170.605469 82.824219 172.582031 84.796875 175.019531 84.796875 L 211.398438 84.796875 L 211.398438 93.476562 C 211.398438 94.929688 213.097656 95.71875 214.210938 94.785156 L 226.085938 84.796875 L 232.0625 84.796875 C 234.503906 84.796875 236.476562 82.820312 236.476562 80.386719 L 236.476562 45.960938 C 236.476562 43.523438 234.503906 41.546875 232.0625 41.546875 Z M 232.0625 41.546875 " fill-opacity="0.4196" fill-rule="nonzero"/><path fill="#68a8de" d="M 246.511719 45.84375 C 246.511719 50.992188 245.03125 55.789062 242.480469 59.816406 C 242.078125 60.460938 241.640625 61.09375 241.179688 61.695312 C 236.519531 67.8125 229.226562 71.75 221.03125 71.75 C 216.824219 71.75 212.859375 70.714844 209.363281 68.875 C 201.160156 64.574219 195.554688 55.871094 195.554688 45.84375 C 195.554688 44.675781 195.628906 43.519531 195.78125 42.386719 C 197.441406 29.714844 208.117188 19.9375 221.03125 19.9375 C 235.101562 19.9375 246.511719 31.539062 246.511719 45.84375 Z M 246.511719 45.84375 " fill-opacity="1" fill-rule="nonzero"/><path fill="#c6606c" d="M 241.179688 61.691406 C 236.519531 67.804688 229.226562 71.742188 221.03125 71.742188 C 216.824219 71.742188 212.859375 70.710938 209.363281 68.871094 C 209.839844 67.679688 211.304688 64.515625 213.898438 62.746094 C 217.132812 60.53125 226.964844 59.199219 233.785156 59.78125 C 237.8125 60.121094 240.035156 61.015625 241.179688 61.691406 Z M 241.179688 61.691406 " fill-opacity="1" fill-rule="nonzero"/><path fill="#ffffff" d="M 209.558594 32.703125 L 209.824219 45.351562 C 209.824219 45.351562 210.226562 58.277344 220.75 58.050781 C 231.277344 57.820312 233.5 41.855469 233.5 41.855469 L 231.84375 32.167969 C 231.84375 32.167969 219.542969 23.964844 209.558594 32.703125 Z M 209.558594 32.703125 " fill-opacity="1" fill-rule="nonzero"/><path fill="#ffffff" d="M 220.824219 55.007812 C 220.824219 55.007812 221.605469 59.898438 220.425781 61.5 C 219.25 63.101562 222.769531 68.652344 222.769531 68.652344 L 230.921875 61.183594 C 230.921875 61.183594 230.382812 55.703125 230.53125 50.90625 Z M 220.824219 55.007812 " fill-opacity="1" fill-rule="nonzero"/><path fill="#00496a" d="M 209.617188 35.605469 C 209.617188 35.605469 212.648438 36.570312 215.886719 36.285156 C 219.128906 36 220.261719 34.695312 220.261719 34.695312 C 220.261719 34.695312 221.34375 35.152344 223.105469 35.152344 C 224.867188 35.152344 226.175781 34.296875 226.175781 34.296875 C 226.175781 34.296875 224.984375 36.34375 225.492188 38.957031 C 226 41.570312 227.710938 42.246094 227.710938 42.246094 C 227.710938 42.246094 228.792969 39.632812 230.664062 39.632812 C 232.535156 39.632812 233.21875 41.621094 232.738281 44.234375 C 232.253906 46.847656 229.242188 47.472656 229.242188 47.472656 L 230.527344 50.910156 C 230.527344 50.910156 235.378906 45.714844 235.945312 39.980469 C 236.511719 34.246094 233.617188 32.539062 233.617188 32.539062 C 233.617188 32.539062 233.863281 28.277344 228.171875 26.804688 C 222.480469 25.328125 218.730469 25.441406 214.464844 27.886719 C 214.464844 27.886719 210.886719 25.160156 207.875 26.804688 C 204.863281 28.453125 205.714844 31.972656 207.191406 32.878906 C 207.191406 32.878906 204.292969 33.613281 204.914062 37.191406 C 205.539062 40.769531 209.714844 40.488281 209.714844 40.488281 Z M 209.617188 35.605469 " fill-opacity="1" fill-rule="nonzero"/><path fill="#d9d9d9" d="M 220.75 58.050781 C 220.75 58.050781 228.402344 56.027344 229.15625 50.910156 C 229.15625 50.910156 231.054688 58.324219 220.75 60.84375 C 220.75 60.84375 221.058594 58.636719 220.75 58.050781 Z M 220.75 58.050781 " fill-opacity="1" fill-rule="nonzero"/><g clip-path="url(#c428ea5744)"><path fill="#4570b4" d="M 260.144531 30.109375 C 261.203125 23.621094 256.800781 17.503906 250.308594 16.441406 C 243.816406 15.382812 237.691406 19.78125 236.632812 26.269531 C 235.570312 32.757812 239.972656 38.875 246.464844 39.933594 C 252.960938 40.996094 259.082031 36.597656 260.144531 30.109375 Z M 260.144531 30.109375 " fill-opacity="0.4196" fill-rule="nonzero"/></g><path fill="#ffffff" d="M 247.046875 31.394531 L 247.003906 30.84375 C 246.878906 29.691406 247.257812 28.4375 248.324219 27.160156 C 249.285156 26.03125 249.816406 25.199219 249.816406 24.238281 C 249.816406 23.152344 249.132812 22.425781 247.789062 22.40625 C 247.019531 22.40625 246.171875 22.660156 245.636719 23.070312 L 245.128906 21.726562 C 245.832031 21.21875 247.046875 20.875 248.175781 20.875 C 250.625 20.875 251.734375 22.386719 251.734375 24.007812 C 251.734375 25.453125 250.925781 26.496094 249.898438 27.710938 C 248.960938 28.820312 248.621094 29.757812 248.6875 30.84375 L 248.707031 31.394531 Z M 246.582031 34.378906 C 246.582031 33.589844 247.109375 33.035156 247.859375 33.035156 C 248.605469 33.035156 249.113281 33.589844 249.113281 34.378906 C 249.113281 35.125 248.628906 35.695312 247.835938 35.695312 C 247.089844 35.695312 246.582031 35.125 246.582031 34.378906 Z M 246.582031 34.378906 " fill-opacity="1" fill-rule="nonzero"/><path fill="#a6d6f7" d="M 228.132812 168.144531 C 228.09375 168.265625 228.046875 168.367188 227.988281 168.445312 C 226.980469 169.902344 225.921875 171.320312 224.800781 172.6875 L 224.796875 172.6875 C 188.390625 217.386719 94.777344 217.386719 94.777344 217.386719 L 94.777344 164.039062 L 227.988281 164.039062 C 227.988281 164.039062 228.503906 166.941406 228.132812 168.144531 Z M 228.132812 168.144531 " fill-opacity="1" fill-rule="nonzero"/><path fill="#8cc6e5" d="M 228.132812 168.144531 C 228.09375 168.265625 228.046875 168.367188 227.988281 168.445312 C 226.980469 169.902344 225.921875 171.320312 224.800781 172.6875 L 224.796875 172.6875 L 94.777344 187.472656 L 94.777344 168.144531 Z M 228.132812 168.144531 " fill-opacity="1" fill-rule="nonzero"/><path fill="#ff6a76" d="M 155.925781 126.300781 L 149.480469 133.125 C 149.480469 133.125 148.160156 131.769531 146.578125 129.691406 C 145.824219 128.695312 145.015625 127.535156 144.265625 126.28125 C 143.285156 124.636719 142.40625 122.835938 141.902344 121.027344 C 140.203125 114.960938 140.898438 102.160156 140.898438 102.160156 C 140.898438 102.160156 143.644531 102.457031 144.585938 103.503906 C 149.871094 109.386719 155.925781 126.300781 155.925781 126.300781 Z M 155.925781 126.300781 " fill-opacity="1" fill-rule="nonzero"/><path fill="#4570b4" d="M 131.703125 148.59375 L 85.558594 148.59375 L 81.34375 113.140625 C 80.863281 109.082031 83.695312 105.390625 87.675781 104.871094 L 90.449219 104.511719 L 125.707031 99.929688 Z M 131.703125 148.59375 " fill-opacity="1" fill-rule="nonzero"/><path fill="#ff6a76" d="M 120.4375 101.105469 C 120.4375 101.105469 105.421875 105.929688 104.605469 107.175781 C 103.792969 108.414062 110.84375 130.402344 110.84375 130.402344 L 109.484375 148.601562 L 140.0625 148.601562 L 141.605469 131.234375 C 141.605469 131.234375 144.875 127.648438 145.078125 121.714844 C 145.277344 115.785156 140.898438 102.160156 140.898438 102.160156 L 130.234375 100.761719 Z M 120.4375 101.105469 " fill-opacity="1" fill-rule="nonzero"/><path fill="#00496a" d="M 124.734375 66.953125 C 124.734375 66.953125 114.269531 62.453125 106.839844 72.945312 C 99.40625 83.4375 107.105469 99.929688 107.105469 99.929688 C 107.105469 99.929688 126.0625 97.457031 131.308594 96.953125 C 136.554688 96.449219 137.621094 96.449219 137.621094 96.449219 C 137.621094 96.449219 140.324219 79.878906 134.554688 73.785156 C 128.78125 67.695312 124.734375 66.953125 124.734375 66.953125 Z M 124.734375 66.953125 " fill-opacity="1" fill-rule="nonzero"/><path fill="#ffffff" d="M 128.625 107.875 L 119.789062 101.824219 C 119.789062 101.824219 120.515625 99.507812 120.335938 97.191406 C 120.292969 96.675781 120.210938 96.164062 120.058594 95.675781 C 119.984375 95.433594 119.894531 95.191406 119.789062 94.960938 L 128.625 94.519531 C 128.625 94.519531 128.683594 95.234375 128.847656 96.15625 C 128.980469 96.878906 129.175781 97.726562 129.472656 98.464844 C 129.6875 99.007812 129.953125 99.492188 130.28125 99.824219 C 131.632812 101.199219 128.625 107.875 128.625 107.875 Z M 128.625 107.875 " fill-opacity="1" fill-rule="nonzero"/><path fill="#d9d9d9" d="M 129.476562 98.464844 C 128.339844 98.5 123.464844 98.574219 120.335938 97.191406 C 120.292969 96.675781 120.210938 96.164062 120.0625 95.675781 C 120.0625 95.675781 126.015625 96.402344 128.847656 96.15625 C 128.980469 96.878906 129.175781 97.726562 129.476562 98.464844 Z M 129.476562 98.464844 " fill-opacity="1" fill-rule="nonzero"/><path fill="#ffffff" d="M 133.601562 70.933594 L 135.074219 83.101562 C 135.074219 83.101562 137.007812 95.636719 126.882812 96.851562 C 116.757812 98.070312 113.351562 86.375 113.351562 86.375 L 112.152344 73.460938 C 112.148438 73.460938 122.828125 63.917969 133.601562 70.933594 Z M 133.601562 70.933594 " fill-opacity="1" fill-rule="nonzero"/><path fill="#00496a" d="M 128.980469 71.875 C 128.980469 71.875 127.65625 75.128906 123.300781 77.441406 C 119.441406 79.484375 115.816406 80.054688 115.816406 80.054688 C 115.816406 80.054688 115.234375 83.480469 113.28125 85.628906 C 113.28125 85.628906 109.898438 79.214844 111.285156 73.695312 C 112.664062 68.171875 119.796875 65.507812 126.058594 66.066406 C 132.316406 66.628906 134.570312 68.925781 135.40625 72.570312 C 136.238281 76.214844 134.847656 81.144531 134.847656 81.144531 C 134.847656 81.144531 133.503906 73.015625 128.980469 71.875 Z M 128.980469 71.875 " fill-opacity="1" fill-rule="nonzero"/><path fill="#68a8de" d="M 112.148438 82.945312 C 112.148438 82.945312 110.945312 73.695312 118.082031 68.78125 C 122.734375 65.582031 128.589844 66.433594 128.589844 66.433594 C 128.589844 66.433594 124.898438 63.65625 117.625 66.863281 C 110.355469 70.070312 109.984375 77.320312 110.722656 82.945312 Z M 112.148438 82.945312 " fill-opacity="1" fill-rule="nonzero"/><path fill="#375c93" d="M 96.082031 148.59375 L 85.554688 148.59375 L 81.339844 113.140625 C 80.855469 109.082031 83.6875 105.390625 87.671875 104.871094 L 90.445312 104.507812 Z M 96.082031 148.59375 " fill-opacity="1" fill-rule="nonzero"/><path fill="#375c93" d="M 122.027344 94.625 C 117.195312 94.625 113.613281 91.265625 113.453125 91.113281 L 114.101562 90.40625 C 114.136719 90.445312 118.054688 94.101562 122.957031 93.613281 L 123.046875 94.574219 C 122.703125 94.609375 122.363281 94.625 122.027344 94.625 Z M 122.027344 94.625 " fill-opacity="1" fill-rule="nonzero"/><path fill="#68a8de" d="M 241.726562 168.445312 L 96.953125 168.445312 C 93.082031 168.445312 89.390625 166.851562 86.816406 164.058594 L 78.867188 155.441406 C 75.78125 152.097656 78.238281 146.804688 82.871094 146.804688 L 224.203125 146.804688 C 229.085938 146.804688 233.78125 148.636719 237.292969 151.917969 L 245.453125 159.53125 C 248.929688 162.769531 246.550781 168.445312 241.726562 168.445312 Z M 241.726562 168.445312 " fill-opacity="1" fill-rule="nonzero"/><path fill="#ffffff" d="M 175.707031 104.195312 C 175.445312 104.339844 175.039062 104.578125 174.59375 104.84375 L 174.507812 104.707031 C 175.832031 103.863281 177.789062 102.542969 177.660156 102.226562 C 177.457031 101.742188 176.464844 101.996094 175.726562 102.394531 C 175.304688 102.628906 174.53125 103.089844 173.78125 103.539062 L 173.726562 103.457031 C 175.042969 102.625 177.234375 101.175781 177.089844 100.835938 C 176.890625 100.355469 175.898438 100.609375 175.160156 101.007812 C 174.695312 101.261719 173.808594 101.792969 172.996094 102.277344 L 172.933594 102.179688 C 174.238281 101.335938 175.933594 100.167969 175.8125 99.871094 C 175.609375 99.390625 174.621094 99.644531 173.882812 100.042969 C 172.886719 100.582031 169.996094 102.367188 169.996094 102.367188 L 167.890625 103.136719 C 168.34375 102.402344 169.625 99.671875 169.023438 99.671875 C 168.425781 99.671875 166.78125 101.574219 166.097656 103.535156 C 165.585938 105.003906 165.523438 106.3125 165.523438 106.875 L 147.0625 130.3125 C 147.0625 130.3125 147.496094 130.996094 148.160156 131.914062 C 150.074219 134.558594 154.535156 135.140625 157.113281 133.132812 C 159.148438 131.542969 160.75 129.441406 162.324219 127.296875 C 165.289062 123.257812 169.707031 112.539062 170.742188 109.972656 L 174.921875 106.0625 C 176.066406 105.320312 177.527344 104.320312 177.417969 104.054688 C 177.238281 103.625 176.359375 103.847656 175.707031 104.195312 Z M 175.707031 104.195312 " fill-opacity="1" fill-rule="nonzero"/><path fill="#00496a" d="M 127.140625 152.507812 C 127.140625 152.507812 129.300781 154.097656 130.152344 156.253906 C 131.007812 158.410156 125.550781 159.796875 116.441406 156.707031 C 109.820312 154.460938 121.003906 147.5625 127.140625 152.507812 Z M 127.140625 152.507812 " fill-opacity="1" fill-rule="nonzero"/><path fill="#00496a" d="M 123.714844 95.210938 L 122.496094 95.210938 C 122.058594 95.210938 121.703125 94.847656 121.703125 94.410156 L 121.703125 93.65625 C 121.703125 93.214844 122.058594 92.855469 122.496094 92.855469 L 123.714844 92.855469 C 124.148438 92.855469 124.503906 93.214844 124.503906 93.65625 L 124.503906 94.410156 C 124.5 94.847656 124.148438 95.210938 123.714844 95.210938 Z M 123.714844 95.210938 " fill-opacity="1" fill-rule="nonzero"/><path fill="#4570b4" d="M 117.367188 85.691406 C 118.039062 89.0625 116.285156 92.273438 113.441406 92.863281 C 110.597656 93.449219 107.75 91.191406 107.070312 87.820312 C 106.398438 84.453125 108.15625 81.238281 110.996094 80.652344 C 113.839844 80.0625 116.691406 82.320312 117.367188 85.691406 Z M 117.367188 85.691406 " fill-opacity="1" fill-rule="nonzero"/><path fill="#68a8de" d="M 114.503906 86.285156 C 114.898438 88.273438 113.867188 90.167969 112.191406 90.515625 C 110.515625 90.859375 108.832031 89.527344 108.433594 87.539062 C 108.039062 85.554688 109.070312 83.65625 110.746094 83.3125 C 112.421875 82.960938 114.105469 84.296875 114.503906 86.285156 Z M 114.503906 86.285156 " fill-opacity="1" fill-rule="nonzero"/><path fill="#ff6a76" d="M 107.078125 105.84375 C 107.078125 105.84375 104.5 106.230469 103.449219 107.894531 C 98.964844 115.027344 90.234375 136.847656 90.234375 136.847656 L 98.65625 140.566406 C 98.65625 140.566406 109.730469 127.746094 110.746094 121.648438 C 111.765625 115.546875 107.078125 105.84375 107.078125 105.84375 Z M 107.078125 105.84375 " fill-opacity="1" fill-rule="nonzero"/><path fill="#ffffff" d="M 97.859375 138.707031 L 115.144531 149.941406 L 112.703125 155.351562 C 112.703125 155.351562 97.148438 149.765625 92.363281 146.152344 C 87.585938 142.53125 90.226562 136.847656 90.226562 136.847656 C 90.226562 136.847656 92.878906 136.535156 97.859375 138.707031 Z M 97.859375 138.707031 " fill-opacity="1" fill-rule="nonzero"/><path fill="#ffffff" d="M 114.640625 149.765625 C 114.640625 149.765625 120.46875 149.492188 122.570312 149.492188 C 124.671875 149.492188 128.328125 152.933594 127.925781 154.039062 C 127.519531 155.140625 123.316406 151.765625 123.316406 151.765625 L 123.078125 152.214844 C 123.078125 152.214844 126.808594 154.488281 127.007812 155.351562 C 127.210938 156.214844 126.367188 156.078125 125.148438 155.558594 C 123.925781 155.039062 122.097656 153.867188 122.097656 153.867188 L 121.894531 154.113281 C 121.894531 154.113281 125.421875 156.285156 125.421875 157.074219 C 125.421875 157.871094 122.882812 156.96875 121.015625 155.726562 L 120.777344 156.109375 C 120.777344 156.109375 123.085938 157.28125 123.253906 158.039062 C 123.421875 158.796875 122.167969 158.488281 120.777344 157.832031 C 119.386719 157.175781 118.097656 157.105469 116.300781 156.832031 C 114.503906 156.554688 112.371094 155.226562 112.371094 155.226562 Z M 114.640625 149.765625 " fill-opacity="1" fill-rule="nonzero"/><path fill="#4570b4" d="M 221.8125 118.257812 L 213.523438 159.796875 L 152.105469 159.796875 L 160.347656 118.496094 C 160.523438 117.621094 161.277344 116.996094 162.152344 116.996094 L 220.796875 116.996094 C 221.449219 116.996094 221.945312 117.605469 221.8125 118.257812 Z M 221.8125 118.257812 " fill-opacity="1" fill-rule="nonzero"/><path fill="#00496a" d="M 152.105469 159.796875 L 135.234375 154.3125 C 134.640625 154.117188 134.238281 153.566406 134.238281 152.933594 C 134.238281 152.136719 134.882812 151.488281 135.683594 151.488281 L 153.769531 151.488281 Z M 152.105469 159.796875 " fill-opacity="1" fill-rule="nonzero"/><path fill="#c6606c" d="M 107.824219 107.53125 C 107.824219 107.53125 111.601562 118.203125 109.316406 125.53125 C 109.316406 125.53125 117.039062 116.957031 107.824219 107.53125 Z M 107.824219 107.53125 " fill-opacity="1" fill-rule="nonzero"/><path fill="#c6606c" d="M 146.578125 129.691406 C 145.824219 128.695312 145.015625 127.535156 144.265625 126.28125 C 145.824219 120.160156 142.199219 106.527344 142.199219 106.527344 C 150.148438 116.65625 147.929688 126.0625 146.578125 129.691406 Z M 146.578125 129.691406 " fill-opacity="1" fill-rule="nonzero"/><path fill="#375c93" d="M 164.042969 119.460938 L 213.523438 159.796875 L 157.105469 159.796875 Z M 164.042969 119.460938 " fill-opacity="1" fill-rule="nonzero"/><path fill="#a6d6f7" d="M 193.78125 145.164062 C 196.300781 144.128906 197.503906 141.246094 196.464844 138.730469 C 195.429688 136.210938 192.546875 135.011719 190.027344 136.046875 C 187.507812 137.082031 186.308594 139.960938 187.34375 142.480469 C 188.378906 144.996094 191.261719 146.199219 193.78125 145.164062 Z M 193.78125 145.164062 " fill-opacity="1" fill-rule="nonzero"/><path fill="#ffa9b3" d="M 120.277344 99.386719 L 128.625 107.871094 C 128.625 107.871094 127.179688 109.914062 124.769531 109.863281 C 122.363281 109.804688 121.003906 106.746094 120.328125 105.152344 C 119.640625 103.554688 118.253906 101.816406 118.253906 101.816406 Z M 120.277344 99.386719 " fill-opacity="1" fill-rule="nonzero"/><path fill="#ffa9b3" d="M 128.625 107.875 C 128.625 107.875 130.777344 109.183594 132.878906 108.273438 C 134.980469 107.367188 134.414062 105.976562 133.675781 104.511719 C 132.9375 103.046875 132.140625 100.433594 132.140625 100.433594 L 129.746094 99.054688 C 129.746094 99.054688 130.167969 104.636719 128.625 107.875 Z M 128.625 107.875 " fill-opacity="1" fill-rule="nonzero"/><path fill="#c6606c" d="M 141.496094 124.265625 L 120.464844 126.300781 C 120.464844 126.300781 125.179688 129.683594 132.441406 128.660156 C 139.699219 127.636719 141.496094 124.265625 141.496094 124.265625 Z M 141.496094 124.265625 " fill-opacity="1" fill-rule="nonzero"/><path fill="#4570b4" d="M 94.480469 55.925781 L 56.445312 55.925781 C 54.019531 55.925781 52.050781 57.890625 52.050781 60.3125 L 52.050781 70.386719 C 52.050781 72.808594 54.019531 74.773438 56.445312 74.773438 L 88.488281 74.773438 L 98.871094 80.773438 L 98.871094 60.3125 C 98.871094 57.890625 96.90625 55.925781 94.480469 55.925781 Z M 94.480469 55.925781 " fill-opacity="0.4196" fill-rule="nonzero"/><path stroke-linecap="round" transform="matrix(0.373768, 0, 0, 0.373616, 30.812061, 16.285585)" fill="none" stroke-linejoin="round" d="M 64.651126 118.299976 L 170.655725 118.299976 " stroke="#ffffff" stroke-width="1" stroke-opacity="1" stroke-miterlimit="10"/><path stroke-linecap="round" transform="matrix(0.373768, 0, 0, 0.373616, 30.812061, 16.285585)" fill="none" stroke-linejoin="round" d="M 64.651126 131.233117 L 170.655725 131.233117 " stroke="#ffffff" stroke-width="1" stroke-opacity="1" stroke-miterlimit="10"/><path stroke-linecap="round" transform="matrix(0.373768, 0, 0, 0.373616, 30.812061, 16.285585)" fill="none" stroke-linejoin="round" d="M 64.651126 144.166258 L 170.655725 144.166258 " stroke="#ffffff" stroke-width="1" stroke-opacity="1" stroke-miterlimit="10"/><path fill="#c6606c" d="M 96.660156 173.066406 C 97.660156 164.84375 91.160156 166.078125 86.71875 170.417969 C 82.273438 174.757812 77.917969 172.335938 82.84375 164.226562 C 87.773438 156.121094 91.378906 153.628906 90.699219 149.550781 C 90.015625 145.46875 86.457031 147.253906 80.292969 150.644531 C 74.132812 154.039062 79.953125 145.175781 79.488281 136.773438 C 79.019531 128.367188 70.667969 132.566406 69.96875 139.644531 C 69.269531 146.71875 72.429688 154.640625 68.371094 153.074219 C 64.320312 151.5 61.863281 142.101562 58.179688 146.539062 C 54.492188 150.976562 68.582031 166.019531 68.113281 170.5625 C 67.640625 175.101562 57.5 161.261719 54.585938 165.820312 C 51.675781 170.375 64.277344 200.804688 75.1875 199.953125 C 89.046875 198.871094 95.664062 181.292969 96.660156 173.066406 Z M 96.660156 173.066406 " fill-opacity="1" fill-rule="nonzero"/><path stroke-linecap="butt" transform="matrix(0.373768, 0, 0, 0.373616, 30.812061, 16.285585)" fill="none" stroke-linejoin="miter" d="M 116.080548 332.831196 C 116.080548 332.831196 111.429849 358.300179 113.290129 390.596438 C 115.150408 422.913608 119.372617 504.182246 119.372617 504.182246 " stroke="#aa4451" stroke-width="1" stroke-opacity="1" stroke-miterlimit="10"/><path stroke-linecap="butt" transform="matrix(0.373768, 0, 0, 0.373616, 30.812061, 16.285585)" fill="none" stroke-linejoin="miter" d="M 84.403535 364.845164 C 84.403535 364.845164 105.828107 390.26187 113.603659 395.865883 C 113.603659 395.865883 141.267484 369.205002 146.545244 364.845164 " stroke="#aa4451" stroke-width="1" stroke-opacity="1" stroke-miterlimit="10"/><path stroke-linecap="butt" transform="matrix(0.373768, 0, 0, 0.373616, 30.812061, 16.285585)" fill="none" stroke-linejoin="miter" d="M 71.747362 415.720398 C 71.747362 415.720398 103.957376 448.121209 116.550844 450.25408 L 163.946177 418.501493 " stroke="#aa4451" stroke-width="1" stroke-opacity="1" stroke-miterlimit="10"/><path fill="#ff6a76" d="M 70.457031 195.28125 C 70.457031 195.28125 75.675781 183.75 72.863281 177.554688 C 70.054688 171.363281 66.023438 174.996094 64.753906 179.9375 C 63.488281 184.875 59.398438 185.027344 59.398438 177.242188 C 59.398438 169.457031 60.867188 166.167969 58.644531 163.597656 C 56.421875 161.027344 54.6875 163.792969 51.808594 168.800781 C 48.929688 173.808594 49.238281 165.109375 45.324219 159.40625 C 41.410156 153.703125 37.339844 160.210938 39.863281 165.480469 C 42.394531 170.742188 47.996094 174.953125 44.480469 175.578125 C 40.960938 176.203125 35.230469 170.652344 34.535156 175.335938 C 33.839844 180.019531 50.152344 184.574219 51.753906 187.957031 C 53.363281 191.34375 40.34375 185.957031 40.242188 190.398438 C 40.140625 194.835938 55.292969 202.628906 62.15625 201.46875 C 69.019531 200.304688 70.457031 195.28125 70.457031 195.28125 Z M 70.457031 195.28125 " fill-opacity="1" fill-rule="nonzero"/><path stroke-linecap="butt" transform="matrix(0.373768, 0, 0, 0.373616, 30.812061, 16.285585)" fill="none" stroke-linejoin="miter" d="M 32.503817 392.332009 C 32.503817 392.332009 85.647206 477.678194 96.829787 504.182246 " stroke="#aa4451" stroke-width="1" stroke-opacity="1" stroke-miterlimit="10"/><path stroke-linecap="butt" transform="matrix(0.373768, 0, 0, 0.373616, 30.812061, 16.285585)" fill="none" stroke-linejoin="miter" d="M 23.798125 432.835638 L 61.170939 439.506085 L 68.862883 407.37711 " stroke="#aa4451" stroke-width="1" stroke-opacity="1" stroke-miterlimit="10"/><path stroke-linecap="butt" transform="matrix(0.373768, 0, 0, 0.373616, 30.812061, 16.285585)" fill="none" stroke-linejoin="miter" d="M 43.550535 471.17503 L 83.473396 478.085948 L 99.933737 441.848061 " stroke="#aa4451" stroke-width="1" stroke-opacity="1" stroke-miterlimit="10"/><path fill="#375c93" d="M 61.582031 204.65625 L 86.824219 204.65625 L 84.652344 217.386719 L 64.214844 217.386719 Z M 61.582031 204.65625 " fill-opacity="1" fill-rule="nonzero"/><path fill="#4570b4" d="M 87.128906 208.175781 L 61.503906 208.175781 C 60.558594 208.175781 59.800781 207.414062 59.800781 206.476562 L 59.800781 205.125 C 59.800781 204.179688 60.566406 203.421875 61.503906 203.421875 L 87.128906 203.421875 C 88.074219 203.421875 88.832031 204.1875 88.832031 205.125 L 88.832031 206.476562 C 88.839844 207.414062 88.074219 208.175781 87.128906 208.175781 Z M 87.128906 208.175781 " fill-opacity="1" fill-rule="nonzero"/><g clip-path="url(#2d562957a4)"><path fill="#4570b4" d="M 178.375 218.78125 C 188.050781 218.78125 195.898438 210.941406 195.898438 201.269531 C 195.898438 191.601562 188.050781 183.761719 178.375 183.761719 C 168.695312 183.761719 160.851562 191.601562 160.851562 201.269531 C 160.851562 210.941406 168.695312 218.78125 178.375 218.78125 Z M 178.375 218.78125 " fill-opacity="0.4196" fill-rule="nonzero"/></g><path fill="#ffffff" d="M 189.386719 194.804688 L 167.359375 194.804688 C 166.753906 194.804688 166.265625 195.292969 166.265625 195.898438 L 166.265625 208.023438 C 166.265625 208.625 166.753906 209.113281 167.359375 209.113281 L 189.386719 209.113281 C 189.988281 209.113281 190.476562 208.625 190.476562 208.023438 L 190.476562 195.898438 C 190.476562 195.292969 189.988281 194.804688 189.386719 194.804688 Z M 189.714844 196.554688 L 179.371094 203.3125 C 179.28125 203.371094 179.179688 203.394531 179.082031 203.394531 C 178.988281 203.394531 178.898438 203.375 178.820312 203.328125 L 166.777344 196.570312 C 166.519531 196.425781 166.429688 196.105469 166.574219 195.851562 C 166.71875 195.59375 167.039062 195.503906 167.296875 195.648438 L 179.0625 202.246094 L 189.136719 195.664062 C 189.378906 195.503906 189.707031 195.574219 189.867188 195.816406 C 190.027344 196.066406 189.957031 196.394531 189.714844 196.554688 Z M 189.714844 196.554688 " fill-opacity="1" fill-rule="nonzero"/><path fill="#ffa9b3" d="M 191.90625 199.382812 C 195.492188 199.382812 198.402344 196.476562 198.402344 192.894531 C 198.402344 189.308594 195.492188 186.402344 191.90625 186.402344 C 188.316406 186.402344 185.40625 189.308594 185.40625 192.894531 C 185.40625 196.476562 188.316406 199.382812 191.90625 199.382812 Z M 191.90625 199.382812 " fill-opacity="1" fill-rule="nonzero"/></svg>